#!OML:ASF X:\für Bonn\!DataBase\2005_08_12_Daniel\c3d\Daniel.ASF
:FULLY-SPECIFIED
:DEGREES
48
root 2.29357 17.5515 18.6342 -7.04461 -352.802 361.744
lowerback 5.14427 -2.66668 -1.19676
upperback 1.23383 -3.66396 -2.58243
thorax -1.70512 -1.82726 -1.74249
lowerneck 0.525063 2.37979 -2.40641
upperneck 7.17874 3.35038 -2.08761
head 2.15294 1.55705 -0.193376
rclavicle -1.30452e-014 6.75868e-015
rhumerus -50.0725 9.63111 -97.4155
rradius 57.8327
rwrist 7.03817
rhand -24.7573 26.7898
rfingers 7.12502
rthumb 1.74601 -3.18283
lclavicle -1.30452e-014 6.75868e-015
lhumerus -46.4186 50.8207 56.8725
lradius 17.0568
lwrist -47.5017
lhand -11.9591 -6.29239
lfingers 7.12502
lthumb 14.0965 23.2095
rfemur 7.59578 14.5131 18.402
rtibia 19.9895
rfoot -23.8708 -19.1716
rtoes -14.1871
lfemur -0.19908 -16.3952 -23.21
ltibia 30.1836
lfoot -21.3458 4.94565
ltoes -15.3288
49
root 2.28782 17.553 18.6462 -6.95433 -352.769 361.776
lowerback 5.08593 -2.67397 -1.21817
upperback 1.1976 -3.67537 -2.6372
thorax -1.71238 -1.83304 -1.7879
lowerneck 0.514187 2.37227 -2.40984
upperneck 7.1444 3.33313 -1.9795
head 2.14136 1.5515 -0.159268
rclavicle 1.70209e-014 3.97569e-016
rhumerus -50.284 10.7061 -97.8625
rradius 60.5562
rwrist 7.097
rhand -25.0009 26.9981
rfingers 7.12502
rthumb 1.51066 -2.97632
lclavicle 1.70209e-014 3.97569e-016
lhumerus -48.5818 52.2662 54.1288
lradius 16.5924
lwrist -49.5108
lhand -11.9025 -6.10667
lfingers 7.12502
lthumb 14.151 23.3914
rfemur 7.58013 14.6506 18.4387
rtibia 19.9842
rfoot -23.9992 -19.3132
rtoes -14.0903
lfemur -0.196505 -16.4384 -23.2111
ltibia 30.0906
lfoot -21.3588 4.93684
ltoes -15.3843
50
root 2.28238 17.5537 18.6571 -6.87392 -352.726 361.809
lowerback 5.06298 -2.68815 -1.25879
upperback 1.14536 -3.6979 -2.66507
thorax -1.75313 -1.84413 -1.79203
lowerneck 0.502007 2.37622 -2.47511
upperneck 7.13151 3.33219 -1.8603
head 2.13582 1.55236 -0.110937
rclavicle 2.90971e-014 -8.74653e-015
rhumerus -50.4374 11.7972 -98.2119
rradius 63.3605
rwrist 7.06867
rhand -25.2148 27.2202
rfingers 7.12502
rthumb 1.30407 -2.75554
lclavicle 2.90971e-014 -8.74653e-015
lhumerus -50.9701 53.6278 51.2116
lradius 16.2043
lwrist -51.4667
lhand -11.7301 -5.81101
lfingers 7.12502
lthumb 14.3171 23.6754
rfemur 7.57137 14.7918 18.4786
rtibia 19.9856
rfoot -24.1218 -19.4802
rtoes -14.0494
lfemur -0.194162 -16.4754 -23.2073
ltibia 29.9976
lfoot -21.3781 4.91061
ltoes -15.3908
51
root 2.27704 17.5543 18.6679 -6.8024 -352.708 361.83
lowerback 5.02433 -2.69093 -1.27326
upperback 1.11261 -3.70316 -2.70855
thorax -1.76735 -1.84682 -1.82926
lowerneck 0.468116 2.36901 -2.49581
upperneck 7.13873 3.31743 -1.74807
head 2.1417 1.54684 -0.0720161
rclavicle 3.05134e-014 1.19271e-015
rhumerus -50.4781 12.888 -98.5127
rradius 66.2439
rwrist 6.87446
rhand -25.4195 27.4285
rfingers 7.12502
rthumb 1.10643 -2.54838
lclavicle 3.05134e-014 1.19271e-015
lhumerus -53.5188 54.9135 48.0875
lradius 15.8636
lwrist -53.4393
lhand -11.484 -5.50282
lfingers 7.12502
lthumb 14.5542 23.9666
rfemur 7.55873 14.9029 18.5167
rtibia 19.9894
rfoot -24.2318 -19.5839
rtoes -14.0515
lfemur -0.179222 -16.517 -23.2041
ltibia 29.9086
lfoot -21.3766 4.92827
ltoes -15.3972
52
root 2.27173 17.5545 18.6776 -6.73827 -352.686 361.873
lowerback 5.01801 -2.68224 -1.32443
upperback 1.06268 -3.69636 -2.74466
thorax -1.81421 -1.84317 -1.83717
lowerneck 0.489984 2.35321 -2.51398
upperneck 7.14347 3.29129 -1.67188
head 2.13767 1.53526 -0.0458124
rclavicle 1.09829e-014 -3.97569e-015
rhumerus -50.4237 13.9329 -98.6881
rradius 69.1623
rwrist 6.64918
rhand -25.5668 27.6056
rfingers 7.12502
rthumb 0.964168 -2.37199
lclavicle 1.09829e-014 -3.97569e-015
lhumerus -56.1459 56.0101 44.9456
lradius 15.5858
lwrist -55.2773
lhand -11.1878 -5.10408
lfingers 7.12502
lthumb 14.8396 24.3445
rfemur 7.55378 15.0485 18.5435
rtibia 20.0019
rfoot -24.3609 -19.731
rtoes -13.9737
lfemur -0.150101 -16.575 -23.2288
ltibia 29.8169
lfoot -21.3935 4.9458
ltoes -15.3657
53
root 2.26729 17.5556 18.6866 -6.65927 -352.681 361.881
lowerback 4.9813 -2.67362 -1.34191
upperback 1.01877 -3.68623 -2.75082
thorax -1.83794 -1.83803 -1.83499
lowerneck 0.500439 2.34206 -2.60348
upperneck 7.129 3.27037 -1.56272
head 2.12764 1.52548 0.00274203
rclavicle -8.72168e-015 -1.07344e-014
rhumerus -50.2138 15.0319 -98.74
rradius 72.1108
rwrist 6.2679
rhand -25.7021 27.7808
rfingers 7.12502
rthumb 0.833502 -2.19728
lclavicle -8.72168e-015 -1.07344e-014
lhumerus -58.9488 57.0548 41.6411
lradius 15.3639
lwrist -57.1273
lhand -10.7643 -4.72191
lfingers 7.12502
lthumb 15.2475 24.6962
rfemur 7.5102 15.1509 18.5813
rtibia 20.0105
rfoot -24.4362 -19.8197
rtoes -13.9326
lfemur -0.158468 -16.5863 -23.2006
ltibia 29.7333
lfoot -21.3864 4.92982
ltoes -15.363
54
root 2.26341 17.5561 18.6945 -6.59604 -352.681 361.91
lowerback 4.98279 -2.65377 -1.36319
upperback 0.957339 -3.66354 -2.77883
thorax -1.90197 -1.82655 -1.8516
lowerneck 0.562945 2.32574 -2.67002
upperneck 7.13591 3.24076 -1.45273
head 2.11586 1.51192 0.0469822
rclavicle 1.0958e-014 2.3059e-014
rhumerus -49.838 16.0804 -98.6909
rradius 74.9992
rwrist 5.87048
rhand -25.8043 27.8736
rfingers 7.12502
rthumb 0.734782 -2.1049
lclavicle 1.0958e-014 2.3059e-014
lhumerus -61.5481 57.7976 38.5854
lradius 15.1909
lwrist -58.6747
lhand -10.2978 -4.31163
lfingers 7.12502
lthumb 15.6968 25.0717
rfemur 7.48766 15.2737 18.6038
rtibia 20.0239
rfoot -24.5238 -19.9312
rtoes -13.9046
lfemur -0.141149 -16.6468 -23.2157
ltibia 29.6491
lfoot -21.3972 4.9701
ltoes -15.3132
55
root 2.25957 17.5573 18.7021 -6.53446 -352.702 361.929
lowerback 4.96789 -2.6259 -1.36586
upperback 0.91769 -3.62823 -2.81669
thorax -1.93592 -1.80899 -1.89098
lowerneck 0.590831 2.30139 -2.7174
upperneck 7.11639 3.19956 -1.32306
head 2.10168 1.49374 0.0942895
rclavicle -2.81032e-014 -1.19271e-014
rhumerus -49.2149 17.1211 -98.5181
rradius 77.7946
rwrist 5.58688
rhand -25.9513 27.801
rfingers 7.12502
rthumb 0.592781 -2.17787
lclavicle -2.81032e-014 -1.19271e-014
lhumerus -64.1816 58.4987 35.4569
lradius 15.0495
lwrist -60.3165
lhand -9.79911 -3.89751
lfingers 7.12502
lthumb 16.1771 25.4474
rfemur 7.45775 15.387 18.6228
rtibia 20.0259
rfoot -24.599 -19.9835
rtoes -13.8696
lfemur -0.129576 -16.6541 -23.212
ltibia 29.5768
lfoot -21.4 4.99488
ltoes -15.3233
